<?xml version="1.0" encoding="utf-8"?>
<svg version="1.1" xmlns="http://www.w3.org/2000/svg" xmlns:xlink="http://www.w3.org/1999/xlink" x="0px" y="0px" viewBox="0 0 51.3 33.6" enable-background="new 0 0 51.3 33.6" xml:space="preserve">
	<path fill="#2c2d2d" d="M38.3,2H28v9h10.3c1.5,0,2.7,1.2,2.7,2.7c0,1.5-1.2,2.7-2.7,2.7H28v15.4h3l6.1-6.4h1.2 c6.5,0,11.7-5.2,11.7-11.7C50,7.3,44.8,2,38.3,2z"></path>
	<path fill="#AE272E" d="M23.4,25.4H13c-6.5,0-11.7-5.2-11.7-11.7C1.3,7.3,6.6,2,13,2h10.3v9H13c-1.5,0-2.7,1.2-2.7,2.7 c0,1.5,1.2,2.7,2.7,2.7h10.3V25.4L23.4,25.4z"></path>
</svg>
